# xmcd CD database file
#
# Track frame offsets:
#	150
#	18846
#	35847
#	51360
#	67058
#	83392
#	106845
#	122407
#	138112
#	154432
#
# Disc length: 2331 seconds
#
# Revision: 0
# Processed by: cddbd v1.5.2PL0 Copyright (c) Steve Scherf et al.
# Submitted via: CDex 1.70beta2
#
DISCID=7c09190a
DTITLE=Dark PHOENiX - Arrow Rain
DYEAR=2008
DGENRE=東方アレンジ
TTITLE0=プレインエイジア
TTITLE1=竹取飛翔
TTITLE2=妖怪の山
TTITLE3=花の映る塚
TTITLE4=恋色マスタースパーク
TTITLE5=幽霊楽団
TTITLE6=少女が見た日本の原風景
TTITLE7=もう歌しか聞こえない
TTITLE8=幽雅に咲かせ、墨染の桜
TTITLE9=ネクロファンタジア
EXTD=YEAR: 2008
EXTT0=
EXTT1=
EXTT2=
EXTT3=
EXTT4=
EXTT5=
EXTT6=
EXTT7=
EXTT8=
EXTT9=
PLAYORDER=
